@startuml
  interface CLI
  interface Web
  interface WebSocket
package "Cloud Broker" #lightgreen {
  component express as REST
  component socket.io as socket
  folder bin #ffffff {
    component " edgemere sml cb" as binName
  }
  binName --> REST

  folder deploy #ffffff {
      file "node server.js\ndocker-compose.yml" as sml_cb_container
      REST --> sml_cb_container

  
    file "node web/server.js" as web_container
    REST --> web_container
    socket ---> web_container
  
    file "node gateway/server.js" as gateway_container
    REST --> gateway_container
    socket ---> gateway_container
  
  }
  folder images #ffffff {
    collections "sml_cb" as sml_cbimage
    artifact "ailtire:swarm" as ailtireswarm
    sml_cbimage <|-- ailtireswarm
    sml_cb_container --> sml_cbimage

  
      artifact sml_cb_web
      web_container --> sml_cb_web
    
      artifact sml_cb_gw
      gateway_container --> sml_cb_gw
    
  }
}
CLI " edgemere sml cb" -- binName
Web "/edgemere/sml/cb" - REST
WebSocket ".edgemere.sml.cb" -- socket

@enduml
