@startuml


package "Distributed Information Management Layer" #ffcc88 {
    }

package "Service Management Layer" #88cc88 {
    
        class Stack {
        }
    }

package "Security Aspect" #cc8888 {
    }

package "Identity Aspect" #cc8888 {
    }

package "Application Management Layer" #88cccc {
    
        class Workload {
        }
    
        class ApplicationInstance {
        }
    
        class Application {
        }
    }

package "Data Management Layer" #ffcc88 {
    
        class DataReference {
        }
    }


package "Application Management Layer" #88cccc {

    interface "Application Management Layer" as i {
            /edgemere/aml/aimodel/create()
            /edgemere/aml/aimodel/deploy()
            /edgemere/aml/aimodel/destroy()
            /edgemere/aml/aimodel/list()
            /edgemere/aml/aimodel/scan()
            /edgemere/aml/aimodel/sign()
            /edgemere/aml/aimodel/update()
            /edgemere/aml/aimodel/validate()
            /edgemere/aml/application/create()
            /edgemere/aml/application/deploy()
            /edgemere/aml/application/destroy()
            /edgemere/aml/application/list()
            /edgemere/aml/application/monitor()
            /edgemere/aml/application/update()
            /edgemere/aml/data/create()
            /edgemere/aml/workload/create()
            /edgemere/aml/workload/deploy()
            /edgemere/aml/workload/destroy()
            /edgemere/aml/workload/list()
            /edgemere/aml/workload/monitor()
            /edgemere/aml/workload/update()
    
    }
}

CLI ()-- i
REST ()-- i
Web ()-- i

package "Application Management Layer" #88cccc {
        class "Application" {
                 string name
                 string version
                 ref fn
                    }
                Application o--> "n" Workload : workloads
                        Application *--> "n" Stack : stacks
                        Application o--> "n" DataReference : data
                        Application *--> "n" ApplicationInstance : instances
            
    
    class "ApplicationInstance" {
                 string name
                 string status
                 string message
                             fail()
                     initialize()
                     kill()
                     provision()
                     stop()
                     terminate()
            }
                ApplicationInstance o--> "1" Application : app
            
    
    class "ApplicationTemplate" {
                 string name
                 json args
                             allocateResources()
                     deleteApplication()
                     duplicateApplication()
                     getApplication()
                     getApplicationTemplate()
                     getApplicationUsage()
                     listApplications()
                     setTemplate()
                     updateApplication()
                     validateParameters()
            }
                ApplicationTemplate o--> "n" Application : app
            
    
    class "Workload" {
                 string name
                             assignApplication()
                     calculateSLABreach()
                     distributeLoad()
                     estimateResourceUsage()
                     optimizeQoS()
                     reviewWorkload()
                     simulation()
                     validateSLA()
            }
                Workload o--> "n" Application : applications
            
    
    class "WorkloadInstance" {
                 string name
                 string status
                 string message
                             exit()
                     failed()
                     kill()
                     provision()
                     provisioned()
                     start()
                     stop()
                     stopped()
            }
                WorkloadInstance o--> "1" Workload : app
            
    
    class "WorkloadTemplate" {
                 string name
                 json args
                             getArgs()
                     getWorkloads()
                     setArgs()
            }
                WorkloadTemplate o--> "n" Workload : workloads
            
    

}


    "Application Management Layer" --> "Distributed Information Management Layer"

    "Application Management Layer" --> "Service Management Layer"

    "Application Management Layer" --> "Security Aspect"

    "Application Management Layer" --> "Identity Aspect"


@enduml
