@startuml
  interface CLI
  interface Web
  interface WebSocket
package "Application Management Layer" #lightblue {
  component express as REST
  component socket.io as socket
  folder bin #ffffff {
    component "edgemere/aml" as binName
  }
  binName --> REST

  folder deploy #ffffff {
  
    file "node web/server.js" as web_container
    REST --> web_container
    socket ---> web_container
  
    file "node gateway/server.js" as gateway_container
    REST --> gateway_container
    socket ---> gateway_container
  
  }
  folder images #ffffff {
  
      artifact _aml_web
      web_container --> _aml_web
    
      artifact _aml_gw
      gateway_container --> _aml_gw
    
  }
}
CLI -- binName
Web - REST
WebSocket -- socket

@enduml
