@startuml
  interface CLI
  interface Web
  interface WebSocket
node "Workflow Services" #88cccc {
  component express as REST
  component socket.io as socket
  folder bin #ffffff {
    card " edgemere aml ws" as binName
  }
  binName --> REST

  folder deploy #ffffff {
      file "node server.js\n" as aml_ws_container
      REST --> aml_ws_container


    file "web" as web_container
    REST --> web_container
    socket ---> web_container

  }
  folder images #ffffff {
    collections "aml_ws" as aml_wsimage
    artifact "ailtire:swarm" as ailtireswarm
    aml_wsimage <|-- ailtireswarm
    aml_ws_container --> aml_wsimage


      artifact "aml_ws_web" as aml_ws_web
      web_container --> aml_ws_web

  }
}
CLI " edgemere aml ws" -- binName
Web "/edgemere/aml/ws" - REST
WebSocket ".edgemere.aml.ws" -- socket

@enduml
