@startuml
  interface CLI
  interface Web
  interface WebSocket
package "Security Aspect" #pink {
  component express as REST
  component socket.io as socket
  folder bin #ffffff {
    component " edgemere sa" as binName
  }
  binName --> REST

  folder deploy #ffffff {
      file "node server.js\ndocker-compose.yml" as sa_container
      REST --> sa_container

  
    file "node web/server.js" as web_container
    REST --> web_container
    socket ---> web_container
  
    file "node gateway/server.js" as gateway_container
    REST --> gateway_container
    socket ---> gateway_container
  
  }
  folder images #ffffff {
    collections "sa" as saimage
    artifact "ailtire:swarm" as ailtireswarm
    saimage <|-- ailtireswarm
    sa_container --> saimage

  
      artifact sa_web
      web_container --> sa_web
    
      artifact sa_gw
      gateway_container --> sa_gw
    
  }
}
CLI " edgemere sa" -- binName
Web "/edgemere/sa" - REST
WebSocket ".edgemere.sa" -- socket

@enduml
