@startuml
  interface CLI
  interface Web
  interface WebSocket
node "Infrastructure Orchestrator" #cccc88 {
  component express as REST
  component socket.io as socket
  folder bin #ffffff {
    card " edgemere sdi io" as binName
  }
  binName --> REST

  folder deploy #ffffff {
      file "node server.js\n" as sdi_io_container
      REST --> sdi_io_container


    file "web" as web_container
    REST --> web_container
    socket ---> web_container

  }
  folder images #ffffff {
    collections "sdi_io" as sdi_ioimage
    artifact "ailtire:swarm" as ailtireswarm
    sdi_ioimage <|-- ailtireswarm
    sdi_io_container --> sdi_ioimage


      artifact "sdi_io_web" as sdi_io_web
      web_container --> sdi_io_web

  }
}
CLI " edgemere sdi io" -- binName
Web "/edgemere/sdi/io" - REST
WebSocket ".edgemere.sdi.io" -- socket

@enduml
