@startuml
  interface CLI
  interface Web
  interface WebSocket
node "Telemetry Consumer" #cccccc {
  component express as REST
  component socket.io as socket
  folder bin #ffffff {
    card " edgemere cpl tc" as binName
  }
  binName --> REST

  folder deploy #ffffff {
      file "node server.js\ndocker-compose.yml" as cpl_tc_container
      REST --> cpl_tc_container

  
    file "web" as web_container
    REST --> web_container
    socket ---> web_container
  
  }
  folder images #ffffff {
    collections "cpl_tc" as cpl_tcimage
    artifact "ailtire:swarm" as ailtireswarm
    cpl_tcimage <|-- ailtireswarm
    cpl_tc_container --> cpl_tcimage

  
      artifact "cpl_tc_web" as cpl_tc_web
      web_container --> cpl_tc_web
    
  }
}
CLI " edgemere cpl tc" -- binName
Web "/edgemere/cpl/tc" - REST
WebSocket ".edgemere.cpl.tc" -- socket

@enduml
