@startuml
  interface CLI
  interface Web
  interface WebSocket
package "Identity Aspect" #pink {
  component express as REST
  component socket.io as socket
  folder bin #ffffff {
    component " edgemere ia" as binName
  }
  binName --> REST

  folder deploy #ffffff {
      file "node server.js\ndocker-compose.yml" as ia_container
      REST --> ia_container

  
    file "node web/server.js" as web_container
    REST --> web_container
    socket ---> web_container
  
    file "node gateway/server.js" as gateway_container
    REST --> gateway_container
    socket ---> gateway_container
  
  }
  folder images #ffffff {
    collections "ia" as iaimage
    artifact "ailtire:swarm" as ailtireswarm
    iaimage <|-- ailtireswarm
    ia_container --> iaimage

  
      artifact ia_web
      web_container --> ia_web
    
      artifact ia_gw
      gateway_container --> ia_gw
    
  }
}
CLI " edgemere ia" -- binName
Web "/edgemere/ia" - REST
WebSocket ".edgemere.ia" -- socket

@enduml
