@startuml
  interface CLI
  interface Web
  interface WebSocket
node "Common Data Service" #ffcc88 {
  component express as REST
  component socket.io as socket
  folder bin #ffffff {
    card " edgemere diml cds" as binName
  }
  binName --> REST

  folder deploy #ffffff {
      file "node server.js\n" as dimlcds_container
      REST --> dimlcds_container

  
    file "web" as web_container
    REST --> web_container
    socket ---> web_container
  
  }
  folder images #ffffff {
    collections "dimlcds" as dimlcdsimage
    artifact "ailtire:swarm" as ailtireswarm
    dimlcdsimage <|-- ailtireswarm
    dimlcds_container --> dimlcdsimage

  
      artifact "diml_cds_web" as diml_cds_web
      web_container --> diml_cds_web
    
  }
}
CLI " edgemere diml cds" -- binName
Web "/edgemere/diml/cds" - REST
WebSocket ".edgemere.diml.cds" -- socket

@enduml
