@startuml
  interface CLI
  interface Web
  interface WebSocket
package "Analytics Services" #88cccc {
  component express as REST
  component socket.io as socket
  folder bin #ffffff {
    component " edgemere aml as" as binName
  }
  binName --> REST

  folder deploy #ffffff {
      file "node server.js\n" as aml_as_container
      REST --> aml_as_container

  
    file "web" as web_container
    REST --> web_container
    socket ---> web_container
  
  }
  folder images #ffffff {
    collections "aml_as" as aml_asimage
    artifact "ailtire:swarm" as ailtireswarm
    aml_asimage <|-- ailtireswarm
    aml_as_container --> aml_asimage

  
      artifact "aml_as_web" as aml_as_web
      web_container --> aml_as_web
    
  }
}
CLI " edgemere aml as" -- binName
Web "/edgemere/aml/as" - REST
WebSocket ".edgemere.aml.as" -- socket

@enduml
