@startuml
  interface CLI
  interface Web
  interface WebSocket
node "Security Aspect" #cc8888 {
  component express as REST
  component socket.io as socket
  folder bin #ffffff {
    card " edgemere sa" as binName
  }
  binName --> REST

  folder deploy #ffffff {
      file "node server.js\n" as sa_container
      REST --> sa_container

  
    file "web" as web_container
    REST --> web_container
    socket ---> web_container
  
  }
  folder images #ffffff {
    collections "sa" as saimage
    artifact "ailtire:swarm" as ailtireswarm
    saimage <|-- ailtireswarm
    sa_container --> saimage

  
      artifact "sa_web" as sa_web
      web_container --> sa_web
    
  }
}
CLI " edgemere sa" -- binName
Web "/edgemere/sa" - REST
WebSocket ".edgemere.sa" -- socket

@enduml
