@startuml
left to right direction


    package "edgemere" as edgemere {
package "sa" as edgemeresa {
package "spm" as edgemeresaspm #cc8888 {
 component "data" as edgemeresaspmdata
 interface "create" as edgemeresaspmdatacreate
edgemeresaspmdata -- edgemeresaspmdatacreate
}
}
}

    
    package "edgemere" as edgemere {
package "sa" as edgemeresa {
package "spm" as edgemeresaspm #cc8888 {
 component "data" as edgemeresaspmdata
 interface "govern" as edgemeresaspmdatagovern
edgemeresaspmdata -- edgemeresaspmdatagovern
}
}
}

    
    package "edgemere" as edgemere {
package "sa" as edgemeresa {
package "spm" as edgemeresaspm #cc8888 {
 component "securityprofile" as edgemeresaspmsecurityprofile
 interface "attach" as edgemeresaspmsecurityprofileattach
edgemeresaspmsecurityprofile -- edgemeresaspmsecurityprofileattach
}
}
}

    
    package "edgemere" as edgemere {
package "sa" as edgemeresa {
package "spm" as edgemeresaspm #cc8888 {
 component "securityprofile" as edgemeresaspmsecurityprofile
 interface "create" as edgemeresaspmsecurityprofilecreate
edgemeresaspmsecurityprofile -- edgemeresaspmsecurityprofilecreate
}
}
}

    
    package "edgemere" as edgemere {
package "sa" as edgemeresa {
package "spm" as edgemeresaspm #cc8888 {
 component "securityprofile" as edgemeresaspmsecurityprofile
 interface "deploy" as edgemeresaspmsecurityprofiledeploy
edgemeresaspmsecurityprofile -- edgemeresaspmsecurityprofiledeploy
}
}
}

    
    package "edgemere" as edgemere {
package "sa" as edgemeresa {
package "spm" as edgemeresaspm #cc8888 {
 component "securityprofile" as edgemeresaspmsecurityprofile
 interface "destroy" as edgemeresaspmsecurityprofiledestroy
edgemeresaspmsecurityprofile -- edgemeresaspmsecurityprofiledestroy
}
}
}

    
    package "edgemere" as edgemere {
package "sa" as edgemeresa {
package "spm" as edgemeresaspm #cc8888 {
 component "securityprofile" as edgemeresaspmsecurityprofile
 interface "disable" as edgemeresaspmsecurityprofiledisable
edgemeresaspmsecurityprofile -- edgemeresaspmsecurityprofiledisable
}
}
}

    
    package "edgemere" as edgemere {
package "sa" as edgemeresa {
package "spm" as edgemeresaspm #cc8888 {
 component "securityprofile" as edgemeresaspmsecurityprofile
 interface "enable" as edgemeresaspmsecurityprofileenable
edgemeresaspmsecurityprofile -- edgemeresaspmsecurityprofileenable
}
}
}

    
    package "edgemere" as edgemere {
package "sa" as edgemeresa {
package "spm" as edgemeresaspm #cc8888 {
 component "securityprofile" as edgemeresaspmsecurityprofile
 interface "list" as edgemeresaspmsecurityprofilelist
edgemeresaspmsecurityprofile -- edgemeresaspmsecurityprofilelist
}
}
}

    
    package "edgemere" as edgemere {
package "sa" as edgemeresa {
package "spm" as edgemeresaspm #cc8888 {
 component "securityprofile" as edgemeresaspmsecurityprofile
 interface "status" as edgemeresaspmsecurityprofilestatus
edgemeresaspmsecurityprofile -- edgemeresaspmsecurityprofilestatus
}
}
}

    
    package "edgemere" as edgemere {
package "sa" as edgemeresa {
package "spm" as edgemeresaspm #cc8888 {
 component "securityprofile" as edgemeresaspmsecurityprofile
 interface "test" as edgemeresaspmsecurityprofiletest
edgemeresaspmsecurityprofile -- edgemeresaspmsecurityprofiletest
}
}
}

    












        rectangle "Manage Applications" as ManageApplications #ffffaa {
            ("Build Application")/ as DevOpsEngineerManageApplicationsBuildApplication
        }
    
    edgemeresaspmdatacreate <-- DevOpsEngineerManageApplicationsBuildApplication



        rectangle "Change Physical World" as ChangePhysicalWorld #ffffaa {
            ("Adjust Temperature")/ as ActorChangePhysicalWorldAdjustTemperature
        }
    
    edgemeresaspmdatacreate <-- ActorChangePhysicalWorldAdjustTemperature

        rectangle "Change Physical World" as ChangePhysicalWorld #ffffaa {
            ("Toogle Switch")/ as ActorChangePhysicalWorldtoggleSwitch
        }
    
    edgemeresaspmdatacreate <-- ActorChangePhysicalWorldtoggleSwitch



        rectangle "Connect Physical Asset to a Device" as ConnectPhysicalAssettoaDevice #ffffaa {
            ("Asset Digital Device Connectivity")/ as ActorConnectPhysicalAssettoaDeviceAssetDigitalDeviceConnectivity
        }
    
    edgemeresaspmdatacreate <-- ActorConnectPhysicalAssettoaDeviceAssetDigitalDeviceConnectivity




        rectangle "Monitor Physical World" as MonitorPhysicalWorld #ffffaa {
            ("Continuous Monitoring")/ as ActorMonitorPhysicalWorldContinuousMonitoring
        }
    
    edgemeresaspmdatacreate <-- ActorMonitorPhysicalWorldContinuousMonitoring












        rectangle "Manage Meta Data" as ManageMetaData #ffffaa {
            ("Capture Meta Data")/ as DataEngineerManageMetaDataCaptureMetaData
        }
    
    edgemeresaspmdatacreate <-- DataEngineerManageMetaDataCaptureMetaData

        rectangle "Manage Meta Data" as ManageMetaData #ffffaa {
            ("Capture Meta Data")/ as DataStewardManageMetaDataCaptureMetaData
        }
    
    edgemeresaspmdatacreate <-- DataStewardManageMetaDataCaptureMetaData







        rectangle "Apply Security Profiles" as ApplySecurityProfiles #ffffaa {
            ("Attach Profile")/ as SecurityEngineerApplySecurityProfilesAttachProfile
        }
    
    edgemeresaspmsecurityprofileattach <-- SecurityEngineerApplySecurityProfilesAttachProfile

        rectangle "Apply Security Profiles" as ApplySecurityProfiles #ffffaa {
            ("Deploy Security Profile")/ as SecurityEngineerApplySecurityProfilesDeploySecurityProfile
        }
    
    edgemeresaspmsecurityprofiledeploy <-- SecurityEngineerApplySecurityProfilesDeploySecurityProfile


        rectangle "Manage Security Profiles" as ManageSecurityProfiles #ffffaa {
            ("Create Security Profile")/ as SecurityEngineerManageSecurityProfilesCreateSecurityProfile
        }
    
    edgemeresaspmsecurityprofilecreate <-- SecurityEngineerManageSecurityProfilesCreateSecurityProfile

        rectangle "Manage Security Profiles" as ManageSecurityProfiles #ffffaa {
            ("Disable Security Profile")/ as SecurityEngineerManageSecurityProfilesDisableSecurityProfile
        }
    
    edgemeresaspmsecurityprofiledisable <-- SecurityEngineerManageSecurityProfilesDisableSecurityProfile

        rectangle "Manage Security Profiles" as ManageSecurityProfiles #ffffaa {
            ("Enable Security Profile")/ as SecurityEngineerManageSecurityProfilesEnableSecurityProfile
        }
    
    edgemeresaspmsecurityprofileenable <-- SecurityEngineerManageSecurityProfilesEnableSecurityProfile

        rectangle "Manage Security Profiles" as ManageSecurityProfiles #ffffaa {
            ("Monitor Security Profile")/ as SecurityEngineerManageSecurityProfilesMonitorSecurityProfile
        }
    
    edgemeresaspmsecurityprofilestatus <-- SecurityEngineerManageSecurityProfilesMonitorSecurityProfile

        rectangle "Manage Security Profiles" as ManageSecurityProfiles #ffffaa {
            ("Remove Security Profile")/ as SecurityEngineerManageSecurityProfilesRemoveSecurityProfile
        }
    
    edgemeresaspmsecurityprofiledestroy <-- SecurityEngineerManageSecurityProfilesRemoveSecurityProfile

        rectangle "Manage Security Profiles" as ManageSecurityProfiles #ffffaa {
            ("Test Security Profile")/ as SecurityEngineerManageSecurityProfilesTestSecurityProfile
        }
    
    edgemeresaspmsecurityprofiletest <-- SecurityEngineerManageSecurityProfilesTestSecurityProfile








        rectangle "Manage Stacks" as ManageStacks #ffffaa {
            ("Build Stack")/ as DevOpsEngineerManageStacksBuildStack
        }
    
    edgemeresaspmdatacreate <-- DevOpsEngineerManageStacksBuildStack

        rectangle "Manage Stacks" as ManageStacks #ffffaa {
            ("Create Application Stack")/ as ApplicationDeveloperManageStacksCreateApplicationStack
        }
    
    edgemeresaspmdatacreate <-- ApplicationDeveloperManageStacksCreateApplicationStack

        rectangle "Manage Stacks" as ManageStacks #ffffaa {
            ("Create Application Stack")/ as StackDeveloperManageStacksCreateApplicationStack
        }
    
    edgemeresaspmdatacreate <-- StackDeveloperManageStacksCreateApplicationStack

        rectangle "Manage Stacks" as ManageStacks #ffffaa {
            ("Create Service Stack")/ as StackDeveloperManageStacksCreateServiceStack
        }
    
    edgemeresaspmdatacreate <-- StackDeveloperManageStacksCreateServiceStack

        rectangle "Manage Stacks" as ManageStacks #ffffaa {
            ("Modify Application Stack")/ as StackDeveloperManageStacksModifyApplicationStack
        }
    
    edgemeresaspmdatacreate <-- StackDeveloperManageStacksModifyApplicationStack

        rectangle "Manage Stacks" as ManageStacks #ffffaa {
            ("Modify Application Stack")/ as ApplicationDeveloperManageStacksModifyApplicationStack
        }
    
    edgemeresaspmdatacreate <-- ApplicationDeveloperManageStacksModifyApplicationStack

        rectangle "Manage Stacks" as ManageStacks #ffffaa {
            ("Modify Service Stack")/ as StackDeveloperManageStacksModifyServiceStack
        }
    
    edgemeresaspmdatacreate <-- StackDeveloperManageStacksModifyServiceStack

        rectangle "Manage Stacks" as ManageStacks #ffffaa {
            ("Test Application Stack")/ as StackDeveloperManageStacksTestApplicationStack
        }
    
    edgemeresaspmdatacreate <-- StackDeveloperManageStacksTestApplicationStack

        rectangle "Manage Stacks" as ManageStacks #ffffaa {
            ("Test Application Stack")/ as ApplicationDeveloperManageStacksTestApplicationStack
        }
    
    edgemeresaspmdatacreate <-- ApplicationDeveloperManageStacksTestApplicationStack

        rectangle "Manage Stacks" as ManageStacks #ffffaa {
            ("Test Service Stack")/ as StackDeveloperManageStacksTestServiceStack
        }
    
    edgemeresaspmdatacreate <-- StackDeveloperManageStacksTestServiceStack

        rectangle "Manage Stacks" as ManageStacks #ffffaa {
            ("Version Application Stack")/ as ApplicationDeveloperManageStacksVersionApplicationStack
        }
    
    edgemeresaspmdatacreate <-- ApplicationDeveloperManageStacksVersionApplicationStack

        rectangle "Manage Stacks" as ManageStacks #ffffaa {
            ("Version Service Stack")/ as StackDeveloperManageStacksVersionServiceStack
        }
    
    edgemeresaspmdatacreate <-- StackDeveloperManageStacksVersionServiceStack




        rectangle "Manage Services" as ManageServices #ffffaa {
            ("Build Service")/ as StackDeveloperManageServicesBuildService
        }
    
    edgemeresaspmdatacreate <-- StackDeveloperManageServicesBuildService









@enduml
