@startuml
  interface CLI
  interface Web
  interface WebSocket
node "Data Flow" #lightblue {
  component express as REST
  component socket.io as socket
  folder bin #ffffff {
    card " edgemere diml ddf df" as binName
  }
  binName --> REST

  folder deploy #ffffff {
      file "node server.js\n" as diml_ddf_df_container
      REST --> diml_ddf_df_container


    file "web" as web_container
    REST --> web_container
    socket ---> web_container

  }
  folder images #ffffff {
    collections "diml_ddf_df" as diml_ddf_dfimage
    artifact "ailtire:swarm" as ailtireswarm
    diml_ddf_dfimage <|-- ailtireswarm
    diml_ddf_df_container --> diml_ddf_dfimage


      artifact "diml_ddf_df_web" as diml_ddf_df_web
      web_container --> diml_ddf_df_web

  }
}
CLI " edgemere diml ddf df" -- binName
Web "/edgemere/diml/ddf/df" - REST
WebSocket ".edgemere.diml.ddf.df" -- socket

@enduml
