@startuml
  interface CLI
  interface Web
  interface WebSocket
package "Software Defined Infrastructure" #lightyellow {
  component express as REST
  component socket.io as socket
  folder bin #ffffff {
    component " edgemere sdi" as binName
  }
  binName --> REST

  folder deploy #ffffff {
      file "node server.js\ndocker-compose.yml" as sdi_container
      REST --> sdi_container

  
    file "node web/server.js" as web_container
    REST --> web_container
    socket ---> web_container
  
    file "node gateway/server.js" as gateway_container
    REST --> gateway_container
    socket ---> gateway_container
  
  }
  folder images #ffffff {
    collections "sdi" as sdiimage
    artifact "ailtire:swarm" as ailtireswarm
    sdiimage <|-- ailtireswarm
    sdi_container --> sdiimage

  
      artifact sdi_web
      web_container --> sdi_web
    
      artifact sdi_gw
      gateway_container --> sdi_gw
    
  }
}
CLI " edgemere sdi" -- binName
Web "/edgemere/sdi" - REST
WebSocket ".edgemere.sdi" -- socket

@enduml
