@startuml
  interface CLI
  interface Web
  interface WebSocket
package "Infrastructure Orchestrator" #lightyellow {
  component express as REST
  component socket.io as socket
  folder bin #ffffff {
    component " edgemere sdi io" as binName
  }
  binName --> REST

  folder deploy #ffffff {
      file "node server.js\ndocker-compose.yml" as sdi_io_container
      REST --> sdi_io_container

  
    file "web" as web_container
    REST --> web_container
    socket ---> web_container
  
    file "gateway" as gateway_container
    REST --> gateway_container
    socket ---> gateway_container
  
  }
  folder images #ffffff {
    collections "sdi_io" as sdi_ioimage
    artifact "ailtire:swarm" as ailtireswarm
    sdi_ioimage <|-- ailtireswarm
    sdi_io_container --> sdi_ioimage

  
      artifact "sdi_io_web" as sdi_io_web
      web_container --> sdi_io_web
    
      artifact "sdi_io_gw" as sdi_io_gw
      gateway_container --> sdi_io_gw
    
  }
}
CLI " edgemere sdi io" -- binName
Web "/edgemere/sdi/io" - REST
WebSocket ".edgemere.sdi.io" -- socket

@enduml
