@startuml
  interface CLI
  interface Web
  interface WebSocket
package "Data Management Layer" #ffcc88 {
  component express as REST
  component socket.io as socket
  folder bin #ffffff {
    component " edgemere diml dml" as binName
  }
  binName --> REST

  folder deploy #ffffff {
      file "node server.js\ndocker-compose.yml" as diml_dml_container
      REST --> diml_dml_container

  
    file "web" as web_container
    REST --> web_container
    socket ---> web_container
  
    file "gateway" as gateway_container
    REST --> gateway_container
    socket ---> gateway_container
  
  }
  folder images #ffffff {
    collections "diml_dml" as diml_dmlimage
    artifact "ailtire:swarm" as ailtireswarm
    diml_dmlimage <|-- ailtireswarm
    diml_dml_container --> diml_dmlimage

  
      artifact "diml_dml_web" as diml_dml_web
      web_container --> diml_dml_web
    
      artifact "diml_dml_gw" as diml_dml_gw
      gateway_container --> diml_dml_gw
    
  }
}
CLI " edgemere diml dml" -- binName
Web "/edgemere/diml/dml" - REST
WebSocket ".edgemere.diml.dml" -- socket

@enduml
