@startuml
  interface CLI
  interface Web
  interface WebSocket
package "AI ML Services" #lightblue {
  component express as REST
  component socket.io as socket
  folder bin #ffffff {
    component " edgemere aml ams" as binName
  }
  binName --> REST

  folder deploy #ffffff {
      file "node server.js\ndocker-compose.yml" as aml_ams_container
      REST --> aml_ams_container

  
    file "web" as web_container
    REST --> web_container
    socket ---> web_container
  
    file "gateway" as gateway_container
    REST --> gateway_container
    socket ---> gateway_container
  
  }
  folder images #ffffff {
    collections "aml_ams" as aml_amsimage
    artifact "ailtire:swarm" as ailtireswarm
    aml_amsimage <|-- ailtireswarm
    aml_ams_container --> aml_amsimage

  
      artifact "aml_ams_web" as aml_ams_web
      web_container --> aml_ams_web
    
      artifact "aml_ams_gw" as aml_ams_gw
      gateway_container --> aml_ams_gw
    
  }
}
CLI " edgemere aml ams" -- binName
Web "/edgemere/aml/ams" - REST
WebSocket ".edgemere.aml.ams" -- socket

@enduml
