@startuml
  interface CLI
  interface Web
  interface WebSocket
package "Storage Services" #lightblue {
  component express as REST
  component socket.io as socket
  folder bin #ffffff {
    component "edgemere/diml/cds/ss" as binName
  }
  binName --> REST

  folder deploy #ffffff {
  
    file "node web/server.js" as web_container
    REST --> web_container
    socket ---> web_container
  
    file "node gateway/server.js" as gateway_container
    REST --> gateway_container
    socket ---> gateway_container
  
  }
  folder images #ffffff {
  
      artifact diml_cds_ss_web
      web_container --> diml_cds_ss_web
    
      artifact diml_cds_ss_gw
      gateway_container --> diml_cds_ss_gw
    
  }
}
CLI -- binName
Web - REST
WebSocket -- socket

@enduml
