@startuml
  interface CLI
  interface Web
  interface WebSocket
node "Identity Aspect" #cc8888 {
  component express as REST
  component socket.io as socket
  folder bin #ffffff {
    card " edgemere ia" as binName
  }
  binName --> REST

  folder deploy #ffffff {
      file "node server.js\n" as ia_container
      REST --> ia_container


    file "web" as web_container
    REST --> web_container
    socket ---> web_container

  }
  folder images #ffffff {
    collections "ia" as iaimage
    artifact "ailtire:swarm" as ailtireswarm
    iaimage <|-- ailtireswarm
    ia_container --> iaimage


      artifact "ia_web" as ia_web
      web_container --> ia_web

  }
}
CLI " edgemere ia" -- binName
Web "/edgemere/ia" - REST
WebSocket ".edgemere.ia" -- socket

@enduml
