@startuml
  interface CLI
  interface Web
  interface WebSocket
node "Storage Services" #lightblue {
  component express as REST
  component socket.io as socket
  folder bin #ffffff {
    card " edgemere diml cds storage" as binName
  }
  binName --> REST

  folder deploy #ffffff {
      file "node server.js\ndocker-compose.yml" as storage_container
      REST --> storage_container


    file "web" as web_container
    REST --> web_container
    socket ---> web_container

  }
  folder images #ffffff {
    collections "storage" as storageimage
    artifact "ailtire:swarm" as ailtireswarm
    storageimage <|-- ailtireswarm
    storage_container --> storageimage


      artifact "diml_cds_storage_web" as diml_cds_storage_web
      web_container --> diml_cds_storage_web

  }
}
CLI " edgemere diml cds storage" -- binName
Web "/edgemere/diml/cds/storage" - REST
WebSocket ".edgemere.diml.cds.storage" -- socket

@enduml
